<svg width="720" height="720" viewBox="0 0 720 720" fill="none" xmlns="http://www.w3.org/2000/svg">
  <defs>
    <linearGradient id="bg" x1="110" y1="80" x2="610" y2="650" gradientUnits="userSpaceOnUse">
      <stop stop-color="#CFF0FF"/>
      <stop offset="1" stop-color="#EAF6FF"/>
    </linearGradient>
  </defs>
  <rect width="720" height="720" rx="360" fill="url(#bg)"/>
  <circle cx="360" cy="292" r="150" fill="#FFD9B3"/>
  <path d="M208 262C208 177 276 108 360 108C444 108 512 177 512 262V292H208V262Z" fill="#1F2937"/>
  <ellipse cx="309" cy="288" rx="13" ry="18" fill="#1F2937"/>
  <ellipse cx="411" cy="288" rx="13" ry="18" fill="#1F2937"/>
  <path d="M300 353C331 390 389 390 420 353" stroke="#1F2937" stroke-width="11" stroke-linecap="round"/>
  <path d="M186 690C194 516 271 432 360 432C449 432 526 516 534 690H186Z" fill="#0081C9"/>
  <path d="M346 449L300 690H420L374 449H346Z" fill="#FDCB08"/>
  <circle cx="560" cy="200" r="31" fill="#FDCB08" fill-opacity="0.58"/>
  <circle cx="158" cy="478" r="25" fill="#0081C9" fill-opacity="0.25"/>
</svg>
